<?xml version="1.0" encoding="UTF-8" standalone="no"?>
<svg width="260px" height="180px" viewBox="0 0 260 180" version="1.1" xmlns="http://www.w3.org/2000/svg" xmlns:xlink="http://www.w3.org/1999/xlink" xmlns:sketch="http://www.bohemiancoding.com/sketch/ns">
    <title>Slice 1</title>
    <description>Created with Sketch (http://www.bohemiancoding.com/sketch)</description>
    <defs></defs>
    <g id="Page 1" stroke="none" stroke-width="1" fill="none" fill-rule="evenodd">
        <g id="Group" transform="translate(19.000000, 16.000000)">
            <path d="M22.0090498,72.5434392 C27.7406018,74.3389345 31.7526281,77.2782899 34.0452489,81.3615938 C36.3378697,85.4448976 37.4841629,92.2937406 37.4841629,101.908328 L37.4841629,114.766327 C37.4841629,120.789924 38.1146242,124.815249 39.3755656,126.842421 C40.6365071,128.869593 42.9290935,130.288592 46.2533937,131.099461 C46.9984954,131.273218 48.0588167,131.446973 49.4343891,131.620731 C54.4781549,132.315761 57,134.690413 57,138.744757 C57,140.71401 56.3408814,142.248846 55.0226244,143.349311 C53.7043675,144.449776 51.841641,145 49.4343891,145 C39.7480662,145 32.9276216,142.56743 28.9728507,137.702217 C25.0180798,132.837004 23.040724,123.685907 23.040724,110.248652 L23.040724,100.170761 C23.040724,93.3942142 22.0950321,88.601472 20.2036199,85.7923907 C18.3122077,82.9833093 13.6697202,80.941688 6.2760181,79.6674655 C4.04071281,79.3199503 2.43590231,78.6104507 1.46153846,77.5389455 C0.487174615,76.4674402 0,74.8022881 0,72.5434392 C0,70.6900247 0.401202624,69.2420663 1.20361991,68.1995207 C2.00603719,67.156975 3.29561706,66.4040367 5.07239819,65.940683 C5.932131,65.7669254 7.1643962,65.4773338 8.76923077,65.0718993 C18.2836071,63.0447272 23.040724,56.413078 23.040724,45.1767525 L23.040724,34.8382265 C23.040724,21.4588906 25.0467371,12.3077937 29.0588235,7.38466147 C33.07091,2.46152921 39.9200119,0 49.6063348,0 C51.9562712,0 53.7760117,0.56470376 55.0656109,1.69412822 C56.3552101,2.82355268 57,4.37286812 57,6.34212103 C57,10.338546 54.4781549,12.6552794 49.4343891,13.2923907 C48.4600253,13.4661483 47.6862774,13.5819849 47.1131222,13.6399041 C43.5022444,14.3349346 40.994728,15.7684133 39.5904977,17.9403835 C38.1862675,20.1123536 37.4841629,24.3259124 37.4841629,30.5811863 L37.4841629,43.3523068 C37.4841629,53.0248137 36.3378697,59.8881363 34.0452489,63.9424805 C31.7526281,67.9968247 27.7406018,70.8637823 22.0090498,72.5434392 C22.0090498,72.5434392 27.7406018,70.8637823 22.0090498,72.5434392 L22.0090498,72.5434392 L22.0090498,72.5434392 Z M22.0090498,72.5434392" id="{" fill="#79CF19"></path>
            <path d="M200.99095,72.5434392 C195.202083,70.8637823 191.14707,67.9823452 188.825792,63.8990413 C186.504513,59.8157375 185.343891,52.9668945 185.343891,43.3523068 L185.343891,30.5811863 C185.343891,24.4417508 184.71343,20.3150695 183.452489,18.2010186 C182.191547,16.0869677 179.956275,14.6245297 176.746606,13.8136609 C176.001505,13.6399033 174.883869,13.4661483 173.393665,13.2923907 C168.46453,12.5973602 166,10.3964635 166,6.68963451 C166,4.48870479 166.601804,2.82355268 167.80543,1.69412822 C169.009056,0.56470376 170.814468,0 173.221719,0 C182.908042,0 189.757144,2.46152921 193.769231,7.38466147 C197.781317,12.3077937 199.78733,21.4588906 199.78733,34.8382265 L199.78733,45.1767525 C199.78733,56.4709972 204.429818,63.1026464 213.714932,65.0718993 C215.491713,65.4194146 216.838608,65.7090062 217.755656,65.940683 C219.589753,66.4619559 220.922319,67.2293738 221.753394,68.2429599 C222.584469,69.2565459 223,70.6900247 223,72.5434392 C223,74.5126921 222.555811,76.0764871 221.667421,77.2348712 C220.77903,78.3932552 219.417807,79.1461936 217.58371,79.4937088 C216.95324,79.6095472 216.064862,79.7833022 214.918552,80.014979 C204.83102,81.9842319 199.78733,88.7027587 199.78733,100.170761 L199.78733,110.248652 C199.78733,123.685907 197.809975,132.837004 193.855204,137.702217 C189.900433,142.56743 183.079988,145 173.393665,145 C170.929098,145 169.0807,144.435296 167.848416,143.305872 C166.616133,142.176447 166,140.482336 166,138.223487 C166,134.516658 168.46453,132.315761 173.393665,131.620731 C174.425345,131.504893 175.170435,131.389056 175.628959,131.273217 C179.354468,130.636106 181.90497,129.303985 183.280543,127.276812 C184.656115,125.24964 185.343891,121.07952 185.343891,114.766327 L185.343891,101.908328 C185.343891,92.409579 186.504513,85.5896952 188.825792,81.4484721 C191.14707,77.3072491 195.202083,74.3389345 200.99095,72.5434392 C200.99095,72.5434392 195.202083,74.3389345 200.99095,72.5434392 L200.99095,72.5434392 L200.99095,72.5434392 Z M200.99095,72.5434392" id="}" fill="#D70014"></path>
            <path d="M103.416659,106.419515 C120.063029,106.419515 133.557576,92.9249677 133.557576,76.2785981 C133.557576,59.6322285 120.063029,46.1376811 103.416659,46.1376811 C86.7702893,46.1376811 73.275742,59.6322285 73.275742,76.2785981 C73.275742,92.9249677 86.7702893,106.419515 103.416659,106.419515 Z M103.175532,124.262938 C76.5413402,124.262938 54.9500645,102.671662 54.9500645,76.0374707 C54.9500645,49.4032794 76.5413402,27.8120036 103.175532,27.8120036 C129.809723,27.8120036 151.400999,49.4032794 151.400999,76.0374707 C151.400999,84.1383517 149.403605,91.772716 145.874441,98.4749369 L167.950064,120.550561 L152.504422,135.996204 L131.546847,115.038629 C123.585738,120.839929 113.780379,124.262938 103.175532,124.262938 Z M103.175532,124.262938" id="Oval 1" fill="#3892E3" transform="translate(111.450064, 81.904104) rotate(-283.000000) translate(-111.450064, -81.904104) "></path>
        </g>
    </g>
</svg>